<svg width="24" height="24" viewBox="0 0 24 24" fill="none" xmlns="http://www.w3.org/2000/svg">
<path d="M1.4 7.00802C1.4 7.56031 1.84772 8.00802 2.4 8.00802C2.95229 8.00802 3.4 7.56031 3.4 7.00802H1.4ZM7.008 3.40002C7.56029 3.40002 8.008 2.95231 8.008 2.40002C8.008 1.84774 7.56029 1.40002 7.008 1.40002V3.40002ZM16.992 1.40002C16.4397 1.40002 15.992 1.84774 15.992 2.40002C15.992 2.95231 16.4397 3.40002 16.992 3.40002V1.40002ZM17.76 2.40002V1.40002V2.40002ZM21.6 6.24002H20.6H21.6ZM20.6 7.00802C20.6 7.56031 21.0477 8.00802 21.6 8.00802C22.1523 8.00802 22.6 7.56031 22.6 7.00802H20.6ZM6.56311 19.6191C6.95363 19.2286 6.95363 18.5954 6.56311 18.2049C6.17258 17.8144 5.53942 17.8144 5.14889 18.2049L6.56311 19.6191ZM2.46089 20.8929C2.07037 21.2834 2.07037 21.9166 2.46089 22.3071C2.85142 22.6977 3.48458 22.6977 3.87511 22.3071L2.46089 20.8929ZM20.1249 22.3071C20.5154 22.6977 21.1486 22.6977 21.5391 22.3071C21.9296 21.9166 21.9296 21.2834 21.5391 20.8929L20.1249 22.3071ZM18.8511 18.2049C18.4606 17.8144 17.8274 17.8144 17.4369 18.2049C17.0464 18.5954 17.0464 19.2286 17.4369 19.6191L18.8511 18.2049ZM13 9.60002C13 9.04774 12.5523 8.60002 12 8.60002C11.4477 8.60002 11 9.04774 11 9.60002H13ZM11 15.6C11 16.1523 11.4477 16.6 12 16.6C12.5523 16.6 13 16.1523 13 15.6H11ZM15 13.6C15.5523 13.6 16 13.1523 16 12.6C16 12.0477 15.5523 11.6 15 11.6V13.6ZM9 11.6C8.44772 11.6 8 12.0477 8 12.6C8 13.1523 8.44772 13.6 9 13.6V11.6ZM3.4 7.00802V6.24002H1.4V7.00802H3.4ZM6.24 3.40002H7.008V1.40002H6.24V3.40002ZM3.4 6.24002C3.4 4.67154 4.67151 3.40002 6.24 3.40002V1.40002C3.56694 1.40002 1.4 3.56697 1.4 6.24002H3.4ZM16.992 3.40002H17.76V1.40002L16.992 1.40002V3.40002ZM20.6 6.24002V7.00802H22.6V6.24002H20.6ZM17.76 3.40002C19.3285 3.40002 20.6 4.67154 20.6 6.24002H22.6C22.6 3.56697 20.4331 1.40002 17.76 1.40002V3.40002ZM5.14889 18.2049L2.46089 20.8929L3.87511 22.3071L6.56311 19.6191L5.14889 18.2049ZM21.5391 20.8929L18.8511 18.2049L17.4369 19.6191L20.1249 22.3071L21.5391 20.8929ZM19.448 12.768C19.448 16.8814 16.1134 20.216 12 20.216V22.216C17.218 22.216 21.448 17.986 21.448 12.768H19.448ZM12 20.216C7.88658 20.216 4.552 16.8814 4.552 12.768H2.552C2.552 17.986 6.78201 22.216 12 22.216V20.216ZM4.552 12.768C4.552 8.65461 7.88658 5.32002 12 5.32002V3.32002C6.78201 3.32002 2.552 7.55004 2.552 12.768H4.552ZM12 5.32002C16.1134 5.32002 19.448 8.65461 19.448 12.768H21.448C21.448 7.55004 17.218 3.32002 12 3.32002V5.32002ZM11 9.60002V12.6H13V9.60002H11ZM11 12.6V15.6H13V12.6H11ZM15 11.6H12V13.6H15V11.6ZM12 11.6H9V13.6H12V11.6Z" fill="#F7CCC8"/>
</svg>
