<svg width="62" height="63" viewBox="0 0 62 63" fill="none" xmlns="http://www.w3.org/2000/svg">
<mask id="mask0_1_309" style="mask-type:luminance" maskUnits="userSpaceOnUse" x="0" y="0" width="62" height="63">
<path d="M53.6358 -1.0267e-05L0 7.81445L8.00207 62.7379L61.6379 54.9235L53.6358 -1.0267e-05Z" fill="white"/>
</mask>
<g mask="url(#mask0_1_309)">
<path d="M19.6551 14.0833C30.9861 11.9187 43.1506 10.1072 54.5295 8.92076C56.4933 22.3996 58.0194 30.9898 58.6975 44.1369C58.8708 47.4952 58.4356 55.0063 49.7143 56.2769C40.9125 57.4124 32.1514 57.4969 23.1223 58.3649C25.2785 43.3061 21.5139 28.9416 19.6551 14.0833Z" fill="white"/>
<path d="M49.7625 56.6505C58.3626 55.3975 59.2875 48.2604 59.0732 44.1183C58.5031 33.0587 57.3146 25.0913 55.8096 15.0046C55.5199 13.0582 55.2168 11.0253 54.9023 8.86719C54.8875 8.77129 54.8366 8.68468 54.76 8.62508C54.6834 8.56548 54.587 8.53739 54.4904 8.54657C43.1759 9.72671 31.1062 11.5129 19.5844 13.7137C19.4909 13.7325 19.4078 13.7857 19.3517 13.8628C19.2956 13.9399 19.2704 14.0353 19.2813 14.13C19.7413 17.8149 20.3288 21.5204 20.8956 25.1044C22.679 36.3794 24.364 47.0367 22.75 58.3114C22.742 58.3678 22.7468 58.4253 22.7642 58.4795C22.7816 58.5337 22.8111 58.5833 22.8504 58.6245C22.8897 58.6657 22.9378 58.6974 22.9912 58.7174C23.0445 58.7373 23.1017 58.7448 23.1584 58.7395C26.9505 58.3769 30.7453 58.1486 34.4209 57.926C39.4521 57.6229 44.6534 57.3103 49.7686 56.6496M54.209 9.33348C54.5042 11.3598 54.7912 13.2766 55.0653 15.1161C56.5666 25.1826 57.7526 33.1334 58.3214 44.1571C58.5223 48.0435 57.6636 54.7381 49.6592 55.9043C44.5788 56.5606 39.3897 56.873 34.3723 57.1749C30.846 57.388 27.2062 57.6037 23.5611 57.9456C25.0785 46.7211 23.3291 35.6741 21.639 24.9869C21.0912 21.5224 20.5253 17.9445 20.0725 14.3877C31.3457 12.2439 43.1338 10.4988 54.209 9.33348Z" fill="black"/>
<path d="M11.8407 51.9065C22.8336 50.108 33.87 48.5816 44.7135 47.167C43.8389 53.3826 47.8449 56.6731 49.7135 56.277C39.4017 57.6833 29.4366 59.2313 18.9337 60.7615C16.9575 60.7887 14.2785 60.3201 12.8308 57.7995C12.2775 56.9344 11.9047 55.9664 11.7345 54.9536C11.5644 53.9409 11.6006 52.9049 11.8407 51.9065Z" fill="white"/>
<path d="M49.6853 56.6641C49.7222 56.6587 49.7606 56.6531 49.796 56.648C49.8828 56.6194 49.9564 56.5606 50.0033 56.4823C50.0503 56.404 50.0676 56.3114 50.052 56.2214C50.0363 56.1315 49.9889 56.0501 49.9182 55.9922C49.8476 55.9344 49.7585 55.9038 49.6672 55.9062L49.4669 55.9354C48.6341 55.8714 47.8557 55.4968 47.2862 54.8858C45.4742 53.1951 44.6539 50.3309 45.0933 47.224C45.1006 47.1666 45.0948 47.1084 45.0762 47.0537C45.0577 46.9989 45.0269 46.9491 44.9862 46.908C44.9455 46.867 44.896 46.8357 44.8415 46.8166C44.7869 46.7976 44.7287 46.7912 44.6713 46.7979C31.3601 48.5343 21.2216 49.9953 11.7865 51.5391C11.716 51.5506 11.6502 51.5819 11.597 51.6294C11.5437 51.677 11.5051 51.7387 11.4857 51.8075C11.2353 52.8545 11.197 53.9411 11.3731 55.0031C11.5493 56.0652 11.9362 57.0813 12.5112 57.9914C13.7197 60.0947 15.9444 61.1824 18.9461 61.1426C18.9626 61.1414 18.979 61.139 18.9951 61.1355C22.5342 60.6199 26.0153 60.1019 29.4678 59.5881C36.3215 58.5673 42.7989 57.6028 49.5554 56.6799C49.5998 56.6735 49.6441 56.6716 49.6878 56.6653M39.526 57.3383C36.1729 57.8269 32.81 58.3276 29.35 58.8425C25.9065 59.3549 22.436 59.8721 18.9044 60.3866C17.0167 60.4087 14.4958 59.9431 13.1569 57.6098C12.1501 56.0118 11.7878 54.091 12.1433 52.2361C21.382 50.727 31.3292 49.2932 44.2823 47.6005C43.9616 50.7624 44.8746 53.6615 46.7694 55.4294C47.0669 55.7094 47.3943 55.9559 47.7455 56.1646C44.9836 56.547 42.259 56.9371 39.5271 57.3351" fill="black"/>
<path d="M28.7605 17.243C28.1917 13.7877 26.2895 10.6938 23.463 8.62655C20.6366 6.55933 17.1117 5.68401 13.6465 6.18887C10.1813 6.69372 7.05273 8.53842 4.93363 11.3262C2.81452 14.1139 1.8742 17.6221 2.31493 21.096C2.88374 24.5512 4.78595 27.6452 7.6124 29.7124C10.4389 31.7796 13.9637 32.6549 17.4289 32.1501C20.8941 31.6452 24.0227 29.8005 26.1418 27.0128C28.2609 24.225 29.2012 20.7169 28.7605 17.243Z" fill="white"/>
<path d="M17.4807 32.5053C21.055 32.0151 24.289 30.1274 26.4734 27.2561C28.6579 24.3848 29.6144 20.7644 29.1332 17.1888C28.5492 13.6354 26.5936 10.4533 23.6873 8.3271C20.781 6.20089 17.1561 5.30051 13.5927 5.81968C10.0293 6.33885 6.81204 8.23609 4.63321 11.1032C2.45438 13.9703 1.48807 17.5781 1.94221 21.1504C2.50127 24.7146 4.45106 27.9116 7.36396 30.0402C10.2769 32.1689 13.9151 33.0554 17.4807 32.5053ZM13.7034 6.57935C17.0713 6.05768 20.5087 6.89311 23.2615 8.90239C26.0144 10.9117 27.8579 13.9307 28.3878 17.2974C28.8045 20.6679 27.8846 24.0675 25.8252 26.768C23.7657 29.4684 20.7305 31.2548 17.3698 31.7444C14.0092 32.234 10.5904 31.388 7.84602 29.3874C5.10164 27.3869 3.24995 24.3911 2.68768 21.0418C2.2349 17.6639 3.14035 14.2443 5.20543 11.5331C7.2705 8.82185 10.3266 7.04036 13.7034 6.57935Z" fill="black"/>
<path d="M15.6637 21.7288L15.675 21.7271C15.7278 21.7179 15.7781 21.6975 15.8225 21.6675C15.8669 21.6374 15.9044 21.5983 15.9326 21.5527L19.5788 15.6071C19.6283 15.522 19.6425 15.421 19.6185 15.3257C19.5945 15.2303 19.5341 15.1481 19.4503 15.0966C19.3665 15.0451 19.2658 15.0285 19.1699 15.0503C19.074 15.072 18.9904 15.1304 18.9369 15.213L15.5156 20.7914L8.81771 15.3232C8.77966 15.29 8.73533 15.2649 8.68736 15.2492C8.6394 15.2335 8.58877 15.2276 8.53848 15.2319C8.4882 15.2361 8.43928 15.2504 8.39464 15.274C8.35 15.2975 8.31054 15.3298 8.27861 15.3689C8.24668 15.4079 8.22293 15.453 8.20876 15.5015C8.1946 15.5499 8.19032 15.6007 8.19617 15.6508C8.20201 15.701 8.21787 15.7494 8.24281 15.7933C8.26774 15.8372 8.30123 15.8756 8.3413 15.9063L15.3737 21.6488C15.4141 21.6819 15.461 21.7063 15.5114 21.7203C15.5618 21.7343 15.6145 21.7376 15.6662 21.73" fill="black"/>
<path d="M14.1188 9.43089C14.1518 9.42609 14.1815 9.40839 14.2014 9.3817C14.2213 9.355 14.2298 9.32149 14.225 9.28854L13.9537 7.42636C13.9489 7.39341 13.9312 7.36371 13.9045 7.34381C13.8778 7.3239 13.8443 7.31541 13.8113 7.32022C13.7784 7.32502 13.7487 7.34271 13.7288 7.36941C13.7089 7.3961 13.7004 7.42961 13.7052 7.46256L13.9765 9.32475C13.9813 9.3577 13.999 9.38739 14.0257 9.4073C14.0524 9.42721 14.0859 9.43569 14.1188 9.43089Z" fill="black"/>
<path d="M17.264 31.018C17.2969 31.0132 17.3266 30.9955 17.3465 30.9688C17.3664 30.9421 17.3749 30.9086 17.3701 30.8756L17.0988 29.0135C17.094 28.9805 17.0763 28.9508 17.0496 28.9309C17.0229 28.911 16.9894 28.9025 16.9564 28.9073C16.9235 28.9121 16.8938 28.9298 16.8739 28.9565C16.854 28.9832 16.8455 29.0167 16.8503 29.0497L17.1216 30.9118C17.1264 30.9448 17.1441 30.9745 17.1708 30.9944C17.1975 31.0143 17.231 31.0228 17.264 31.018Z" fill="black"/>
<path d="M3.59571 21.0355L5.49478 20.7588C5.5258 20.7518 5.55304 20.7333 5.57105 20.7071C5.58906 20.6809 5.59652 20.6488 5.59193 20.6174C5.58735 20.5859 5.57105 20.5573 5.54631 20.5373C5.52157 20.5173 5.4902 20.5074 5.45847 20.5096L3.55939 20.7862C3.52837 20.7933 3.50113 20.8117 3.48312 20.8379C3.46511 20.8641 3.45766 20.8962 3.46224 20.9277C3.46683 20.9591 3.48311 20.9877 3.50786 21.0077C3.5326 21.0277 3.56397 21.0376 3.59571 21.0355Z" fill="black"/>
<path d="M25.6166 17.8272L27.5157 17.5505C27.5467 17.5435 27.5739 17.525 27.5919 17.4988C27.61 17.4726 27.6174 17.4405 27.6128 17.4091C27.6082 17.3776 27.592 17.349 27.5672 17.329C27.5425 17.309 27.5111 17.2991 27.4794 17.3012L25.5803 17.5779C25.5493 17.5849 25.522 17.6034 25.504 17.6296C25.486 17.6558 25.4786 17.6879 25.4831 17.7193C25.4877 17.7508 25.504 17.7794 25.5288 17.7994C25.5535 17.8194 25.5849 17.8293 25.6166 17.8272Z" fill="black"/>
<path d="M47.5468 20.0611C47.1739 20.1183 46.8254 20.282 46.5433 20.5327C46.2613 20.7833 46.0577 21.1102 45.9571 21.4739C45.8926 21.7043 45.8771 21.9457 45.9118 22.1825C45.9465 22.4192 46.0305 22.6461 46.1584 22.8483C46.2863 23.0506 46.4553 23.2237 46.6543 23.3565C46.8534 23.4893 47.0781 23.5788 47.3139 23.6193C47.7998 23.6677 48.2859 23.5308 48.675 23.2359C49.0642 22.9411 49.3275 22.5101 49.4123 22.0294C49.4341 21.7741 49.4016 21.5172 49.317 21.2754C49.2323 21.0336 49.0975 20.8125 48.9213 20.6266C48.7451 20.4407 48.5315 20.2942 48.2946 20.1967C48.0577 20.0992 47.8029 20.053 47.5468 20.0611Z" fill="#0086D5"/>
<path d="M47.8402 23.9909C48.2191 23.9333 48.5777 23.7822 48.8835 23.5513C49.3657 23.1992 49.6897 22.6713 49.7853 22.0819C49.817 21.755 49.7747 21.4251 49.6615 21.1168C49.5483 20.8084 49.367 20.5296 49.1313 20.3009C48.9252 20.0793 48.6706 19.9086 48.3874 19.8022C48.1043 19.6957 47.8002 19.6564 47.4993 19.6874C47.0571 19.7523 46.6431 19.9436 46.3069 20.2381C45.9708 20.5326 45.7267 20.9179 45.6042 21.3476C45.514 21.6174 45.4847 21.9038 45.5185 22.1863C45.5524 22.4687 45.6485 22.7401 45.7998 22.9809C45.9543 23.2455 46.1651 23.4729 46.4171 23.647C46.6692 23.8212 46.9565 23.9379 47.2586 23.9888C47.4513 24.0168 47.6471 24.0165 47.8398 23.9879M47.5954 20.4316C47.781 20.4155 47.9677 20.4427 48.1411 20.5108C48.3144 20.5789 48.4697 20.6862 48.5947 20.8243C48.7487 20.9709 48.8684 21.1498 48.9452 21.3482C49.022 21.5465 49.0539 21.7594 49.0386 21.9715C48.9723 22.3628 48.7539 22.7119 48.4312 22.9428C48.13 23.1785 47.748 23.2858 47.3681 23.2415C47.176 23.2073 46.9937 23.1314 46.8342 23.0191C46.6746 22.9068 46.5416 22.761 46.4445 22.5917C46.3501 22.4459 46.2892 22.281 46.2661 22.1089C46.243 21.9367 46.2583 21.7616 46.3109 21.5961C46.3919 21.3048 46.5528 21.042 46.7753 20.8374C46.9979 20.6328 47.2732 20.4946 47.5703 20.4383L47.5951 20.4347" fill="black"/>
<path d="M48.8962 29.323C48.5233 29.3802 48.1748 29.544 47.8927 29.7947C47.6107 30.0453 47.4071 30.3722 47.3065 30.7358C47.242 30.9663 47.2265 31.2077 47.2612 31.4444C47.2959 31.6812 47.3799 31.9081 47.5078 32.1103C47.6357 32.3125 47.8047 32.4857 48.0037 32.6185C48.2028 32.7513 48.4275 32.8408 48.6634 32.8813C49.1492 32.9297 49.6353 32.7927 50.0244 32.4979C50.4136 32.2031 50.6769 31.7721 50.7617 31.2913C50.7835 31.0361 50.751 30.7791 50.6664 30.5374C50.5818 30.2956 50.4469 30.0745 50.2707 29.8886C50.0945 29.7026 49.8809 29.5561 49.644 29.4587C49.4071 29.3612 49.1523 29.315 48.8962 29.323Z" fill="#0086D5"/>
<path d="M49.1897 33.2529C49.5685 33.1952 49.9271 33.0441 50.233 32.8133C50.7151 32.4612 51.0391 31.9332 51.1347 31.3439C51.1664 31.0169 51.1241 30.6871 51.0109 30.3787C50.8977 30.0704 50.7165 29.7915 50.4807 29.5628C50.2747 29.3413 50.02 29.1706 49.7369 29.0641C49.4537 28.9577 49.1497 28.9184 48.8487 28.9493C48.4065 29.0143 47.9925 29.2055 47.6563 29.5C47.3202 29.7945 47.0762 30.1798 46.9536 30.6096C46.8634 30.8794 46.8341 31.1658 46.868 31.4482C46.9018 31.7307 46.9979 32.0021 47.1493 32.2429C47.3038 32.5075 47.5145 32.7349 47.7666 32.909C48.0186 33.0832 48.3059 33.1998 48.608 33.2507C48.8007 33.2788 48.9966 33.2785 49.1892 33.2499M48.9448 29.6935C49.1304 29.6775 49.3172 29.7046 49.4905 29.7727C49.6638 29.8409 49.8191 29.9482 49.9441 30.0862C50.0981 30.2329 50.2178 30.4118 50.2946 30.6101C50.3714 30.8085 50.4033 31.0213 50.3881 31.2335C50.3217 31.6247 50.1033 31.9739 49.7806 32.2048C49.4794 32.4405 49.0974 32.5478 48.7175 32.5035C48.5254 32.4693 48.3432 32.3933 48.1836 32.2811C48.024 32.1688 47.891 32.0229 47.7939 31.8537C47.6995 31.7079 47.6386 31.543 47.6155 31.3708C47.5924 31.1987 47.6077 31.0236 47.6603 30.8581C47.7413 30.5668 47.9022 30.304 48.1247 30.0994C48.3473 29.8948 48.6227 29.7565 48.9197 29.7003L48.9445 29.6967" fill="black"/>
<path d="M50.1314 37.8013C49.7584 37.8584 49.41 38.0222 49.1279 38.2729C48.8458 38.5235 48.6423 38.8504 48.5417 39.214C48.4771 39.4445 48.4617 39.6859 48.4964 39.9226C48.5311 40.1594 48.6151 40.3863 48.743 40.5885C48.8709 40.7907 49.0398 40.9639 49.2389 41.0967C49.438 41.2295 49.6627 41.319 49.8985 41.3595C50.3843 41.4079 50.8705 41.271 51.2596 40.9761C51.6487 40.6813 51.9121 40.2503 51.9969 39.7695C52.0187 39.5143 51.9862 39.2573 51.9016 39.0156C51.8169 38.7738 51.6821 38.5527 51.5059 38.3668C51.3296 38.1808 51.1161 38.0343 50.8792 37.9369C50.6423 37.8394 50.3875 37.7932 50.1314 37.8013Z" fill="#0086D5"/>
<path d="M50.4249 41.731C50.8037 41.6734 51.1623 41.5223 51.4682 41.2914C51.9503 40.9393 52.2743 40.4114 52.3699 39.822C52.4016 39.4951 52.3593 39.1652 52.2461 38.8569C52.1329 38.5485 51.9517 38.2697 51.7159 38.041C51.5099 37.8194 51.2552 37.6487 50.9721 37.5423C50.6889 37.4358 50.3849 37.3965 50.0839 37.4275C49.6417 37.4924 49.2277 37.6837 48.8915 37.9782C48.5554 38.2727 48.3114 38.658 48.1888 39.0878C48.0986 39.3575 48.0693 39.6439 48.1032 39.9264C48.137 40.2088 48.2331 40.4802 48.3845 40.721C48.539 40.9856 48.7497 41.213 49.0018 41.3872C49.2538 41.5613 49.5411 41.678 49.8432 41.7289C50.0359 41.7569 50.2318 41.7566 50.4244 41.728M50.18 38.1717C50.3656 38.1557 50.5524 38.1828 50.7257 38.2509C50.899 38.319 51.0543 38.4263 51.1793 38.5644C51.3333 38.711 51.4531 38.8899 51.5298 39.0883C51.6066 39.2866 51.6385 39.4995 51.6233 39.7116C51.5569 40.1029 51.3385 40.452 51.0158 40.6829C50.7146 40.9186 50.3326 41.026 49.9527 40.9816C49.7606 40.9474 49.5784 40.8715 49.4188 40.7592C49.2592 40.647 49.1262 40.5011 49.0291 40.3318C48.9347 40.186 48.8738 40.0211 48.8507 39.849C48.8276 39.6768 48.8429 39.5017 48.8956 39.3362C48.9765 39.045 49.1374 38.7822 49.3599 38.5776C49.5825 38.3729 49.8579 38.2347 50.1549 38.1784L50.1797 38.1748" fill="black"/>
<path d="M31.6938 24.2071L42.6123 22.6164C42.6453 22.6116 42.675 22.5939 42.6949 22.5672C42.7148 22.5405 42.7233 22.507 42.7185 22.474C42.7137 22.4411 42.696 22.4114 42.6693 22.3915C42.6426 22.3715 42.6091 22.3631 42.5761 22.3679L31.6576 23.9586C31.6246 23.9634 31.5949 23.9811 31.575 24.0078C31.5551 24.0345 31.5466 24.068 31.5514 24.101C31.5562 24.1339 31.5739 24.1636 31.6006 24.1835C31.6273 24.2035 31.6608 24.2119 31.6938 24.2071Z" fill="black"/>
<path d="M28.4522 34.0965L43.9581 31.8374C43.9911 31.8326 44.0208 31.8149 44.0407 31.7882C44.0606 31.7615 44.0691 31.728 44.0643 31.695C44.0595 31.6621 44.0418 31.6324 44.0151 31.6125C43.9884 31.5925 43.9549 31.5841 43.9219 31.5889L28.416 33.848C28.3831 33.8528 28.3534 33.8705 28.3335 33.8972C28.3136 33.9239 28.3051 33.9574 28.3099 33.9903C28.3147 34.0233 28.3324 34.053 28.3591 34.0729C28.3858 34.0928 28.4193 34.1013 28.4522 34.0965Z" fill="black"/>
<path d="M29.3479 42.8779L44.8538 40.6187C44.8867 40.6139 44.9164 40.5962 44.9363 40.5695C44.9562 40.5428 44.9647 40.5093 44.9599 40.4764C44.9551 40.4434 44.9374 40.4137 44.9107 40.3938C44.884 40.3739 44.8505 40.3654 44.8175 40.3702L29.3117 42.6294C29.2787 42.6342 29.249 42.6519 29.2291 42.6786C29.2092 42.7052 29.2007 42.7388 29.2055 42.7717C29.2103 42.8047 29.228 42.8344 29.2547 42.8543C29.2814 42.8742 29.3149 42.8827 29.3479 42.8779Z" fill="black"/>
</g>
</svg>
