<svg width="40" height="18" viewBox="0 0 40 18" fill="none" xmlns="http://www.w3.org/2000/svg">
<path d="M11.8741 18C17.7151 18 23.8114 17.7067 30.3321 17.1148C32.292 16.9378 34.0506 16.7281 35.7158 15.954C36.6702 15.5317 37.5244 14.9097 38.2217 14.1294C38.9191 13.349 39.4437 12.4281 39.7608 11.4278C40.0331 10.557 40.0737 9.62947 39.8785 8.7379C39.2705 6.26281 36.7618 5.38622 34.9304 4.94219C26.8542 2.98733 18.6114 1.32696 10.4385 0.00748844C10.3612 -0.00492603 10.2823 -0.00188174 10.2061 0.0164493C10.13 0.0347804 10.0582 0.0680382 9.99482 0.114324C9.93144 0.16061 9.87774 0.219017 9.83677 0.286211C9.7958 0.353405 9.76837 0.428068 9.75605 0.505941C9.74373 0.583813 9.74675 0.663369 9.76495 0.740065C9.78314 0.81676 9.81616 0.889093 9.8621 0.952936C9.90805 1.01678 9.96603 1.07088 10.0327 1.11215C10.0994 1.15342 10.1736 1.18105 10.2509 1.19347C18.3924 2.50664 26.6023 4.16071 34.65 6.10984C36.3113 6.51089 38.2758 7.20587 38.7228 9.02494C38.8665 9.70994 38.8305 10.4208 38.6182 11.0875C38.3499 11.9247 37.908 12.6948 37.3217 13.3468C36.7355 13.9987 36.0182 14.5176 35.2176 14.8689C33.6243 15.5011 31.9364 15.8577 30.2252 15.9237C21.7364 16.7387 13.203 16.9793 4.68228 16.6439C3.42421 16.5866 2.1798 16.4038 1.5957 15.4178C1.15378 14.673 1.16459 13.6107 1.21634 12.4958C1.28118 11.1339 1.36081 9.4386 2.11667 8.27439C3.23368 6.55558 5.43074 6.441 7.40258 6.47938C11.6113 6.54756 26.4555 8.21825 29.1616 8.92812C29.313 8.96397 29.4723 8.93875 29.6055 8.85785C29.7386 8.77695 29.8351 8.64679 29.8742 8.49518C29.9134 8.34358 29.8921 8.18257 29.8149 8.04656C29.7378 7.91055 29.6109 7.81034 29.4614 7.76735C26.6336 7.02253 11.8035 5.3507 7.42192 5.27908C4.96494 5.24012 2.49943 5.49508 1.11966 7.61838C0.185209 9.05531 0.0959162 10.9317 0.0265293 12.4402C-0.0348952 13.7454 -0.0383076 15.0024 0.571956 16.0337C1.56612 17.7107 3.63579 17.8006 4.62995 17.8442C7.00731 17.9473 9.41765 17.9994 11.8735 17.9994" fill="black" fill-opacity="0.5"/>
</svg>
